# Alias OBJ Model File
# Exported from SketchUp, (c) 2000-2012 Trimble Navigation Limited
# File units = millimeters

mtllib arrow-1head-50mm.mtl

g Mesh1 Group_9_1 Model

usemtl FrontColor
v 0 5 -0
vt 1.53714 0.19685
vn -0.624695 0 -0.780869
v 12.5 0 -10
vt 0.906915 0
v 0 0 -0
vt 1.53714 0
f 1/1/1 2/2/1 3/3/1

v 12.5 5 -10
vt 0.906915 0.19685
f 2/2/1 1/1/1 4/4/1

v 12.5 5 10
vt -1.47638 -0.393701
vn 0 1 -0
vt -1.47638 0.393701
vt -1.9685 0
f 5/5/2 4/6/2 1/7/2

v 12.5 5 5
vt -1.47638 -0.19685
f 4/6/2 5/5/2 6/8/2

vt -0.393701 0.19685
vn 1 0 -0
v 12.5 0 5
vt -0.19685 0
vt -0.19685 0.19685
f 5/9/3 7/10/3 6/11/3

v 12.5 0 10
vt -0.393701 0
f 7/10/3 5/9/3 8/12/3

vt -0.906915 0.19685
vn -0.624695 0 0.780869
vt -1.53714 0
vt -0.906915 0
f 5/13/4 3/14/4 8/15/4

vt -1.53714 0.19685
f 3/14/4 5/13/4 1/16/4

vt 1.47638 0.393701
vn 0 -1 -0
vt 1.47638 -0.393701
vt 1.9685 0
f 2/17/5 8/18/5 3/19/5

v 12.5 0 -5
vt 1.47638 0.19685
f 8/18/5 2/17/5 9/20/5

vt 0.393701 0
v 12.5 5 -5
vt 0.19685 0.19685
vt 0.19685 0
f 2/21/3 10/22/3 9/23/3

vt 0.393701 0.19685
f 10/22/3 2/21/3 4/24/3

vt -1.47638 0.19685
f 4/6/2 6/8/2 10/25/2

v 50 5 5
vt 0 -0.19685
f 11/26/2 10/25/2 6/8/2

v 50 5 -5
vt 0 0.19685
f 10/25/2 11/26/2 12/27/2

v 50 0 -5
f 11/11/3 13/23/3 12/22/3

v 50 0 5
f 13/23/3 11/11/3 14/10/3

vn 0 0 1
vt -1.47638 0
vt 0 0
f 11/27/6 7/28/6 14/29/6

f 7/28/6 11/27/6 6/25/6

vt 1.47638 -0.19685
f 7/30/5 13/27/5 14/26/5

f 13/27/5 7/30/5 9/20/5

f 8/18/5 9/20/5 7/30/5

vn 0 0 -1
vt 1.47638 0
f 10/20/7 13/29/7 9/31/7

f 13/29/7 10/20/7 12/27/7

g Mesh2 Group_9_1 Model

l 1 3

l 1 4

l 1 5

l 5 8

l 6 5

l 6 11

l 6 7

l 7 14

l 7 8

l 3 8

l 3 2

l 4 2

l 4 10

l 10 12

l 10 9

l 9 13

l 2 9

l 12 13

l 11 12

l 14 11

l 14 13

